<?xml version="1.0" encoding="UTF-8" standalone="no"?>
<!-- Created with Inkscape (http://www.inkscape.org/) -->

<svg
   width="16"
   height="16"
   viewBox="0 0 16 16"
   version="1.1"
   id="svg1"
   xml:space="preserve"
   xmlns="http://www.w3.org/2000/svg"
   xmlns:svg="http://www.w3.org/2000/svg"><defs
     id="defs1" /><path
     id="path18"
     style="baseline-shift:baseline;display:inline;overflow:visible;vector-effect:none;fill:#ffffff;enable-background:accumulate;stop-color:#000000;stop-opacity:1"
     d="M 3 2 C 2.4477153 2 2 2.4477153 2 3 L 2 11 C 2 11.552285 2.4477153 12 3 12 L 6.6347656 12 C 6.5492353 11.852751 6.5 11.681901 6.5 11.5 L 6.5 10.5 C 6.5 9.9493691 6.9493691 9.5 7.5 9.5 L 9.5 9.5 L 9.5 7.5 C 9.5 6.9493691 9.9493691 6.5 10.5 6.5 L 11.5 6.5 C 11.681901 6.5 11.852751 6.549235 12 6.6347656 L 12 3 C 12 2.4477153 11.552285 2 11 2 L 3 2 z M 10.5 7 A 0.5 0.5 0 0 0 10 7.5 L 10 10 L 7.5 10 A 0.5 0.5 0 0 0 7 10.5 L 7 11.5 A 0.5 0.5 0 0 0 7.5 12 L 10 12 L 10 14.5 A 0.5 0.5 0 0 0 10.5 15 L 11.5 15 A 0.5 0.5 0 0 0 12 14.5 L 12 12 L 14.5 12 A 0.5 0.5 0 0 0 15 11.5 L 15 10.5 A 0.5 0.5 0 0 0 14.5 10 L 12 10 L 12 7.5 A 0.5 0.5 0 0 0 11.5 7 L 10.5 7 z " /></svg>
