<?xml version="1.0" encoding="UTF-8"?>
<svg xmlns="http://www.w3.org/2000/svg" xmlns:xlink="http://www.w3.org/1999/xlink" width="128" height="128" viewBox="0 0 128 128" version="1.1">
<g id="surface1">
<path style=" stroke:none;fill-rule:nonzero;fill:rgb(100%,100%,100%);fill-opacity:1;" d="M 24 16 C 19.582031 16 16 19.582031 16 24 L 16 88 C 16 92.417969 19.582031 96 24 96 L 53.078125 96 C 52.394531 94.820312 52 93.457031 52 92 L 52 84 C 52 79.59375 55.59375 76 60 76 L 76 76 L 76 60 C 76 55.59375 79.59375 52 84 52 L 92 52 C 93.457031 52 94.820312 52.394531 96 53.078125 L 96 24 C 96 19.582031 92.417969 16 88 16 Z M 84 56 C 81.789062 56 80 57.789062 80 60 L 80 80 L 60 80 C 57.789062 80 56 81.789062 56 84 L 56 92 C 56 94.210938 57.789062 96 60 96 L 80 96 L 80 116 C 80 118.210938 81.789062 120 84 120 L 92 120 C 94.210938 120 96 118.210938 96 116 L 96 96 L 116 96 C 118.210938 96 120 94.210938 120 92 L 120 84 C 120 81.789062 118.210938 80 116 80 L 96 80 L 96 60 C 96 57.789062 94.210938 56 92 56 Z M 84 56 "/>
</g>
</svg>
