<?xml version="1.0" encoding="UTF-8" standalone="no"?>
<!-- Created with Inkscape (http://www.inkscape.org/) -->

<svg
   width="16"
   height="16"
   viewBox="0 0 16 16"
   version="1.1"
   id="svg1"
   xml:space="preserve"
   xmlns="http://www.w3.org/2000/svg"
   xmlns:svg="http://www.w3.org/2000/svg"><defs
     id="defs1" /><path
     id="path18"
     style="baseline-shift:baseline;display:inline;overflow:visible;vector-effect:none;fill:#ffffff;enable-background:accumulate;stop-color:#000000;stop-opacity:1"
     d="M 3,2 C 2.4477153,2 2,2.4477153 2,3 v 8 c 0,0.552285 0.4477153,1 1,1 H 6.6347656 C 6.5492353,11.852751 6.5,11.681901 6.5,11.5 v -1 c 0,-0.5506309 0.4493691,-1 1,-1 h 2 v -2 c 0,-0.5506309 0.4493691,-1 1,-1 h 1 c 0.181901,0 0.352751,0.049235 0.5,0.1347656 V 3 C 12,2.4477153 11.552285,2 11,2 Z m 7.5,5 A 0.5,0.5 0 0 0 10,7.5 V 10 H 7.5 A 0.5,0.5 0 0 0 7,10.5 v 1 A 0.5,0.5 0 0 0 7.5,12 H 10 v 2.5 a 0.5,0.5 0 0 0 0.5,0.5 h 1 A 0.5,0.5 0 0 0 12,14.5 V 12 h 2.5 A 0.5,0.5 0 0 0 15,11.5 v -1 A 0.5,0.5 0 0 0 14.5,10 H 12 V 7.5 A 0.5,0.5 0 0 0 11.5,7 Z" /></svg>
