<?xml version="1.0" encoding="UTF-8" standalone="no"?>
<!-- Created with Inkscape (http://www.inkscape.org/) -->

<svg
   width="16"
   height="16"
   viewBox="0 0 16 16"
   version="1.1"
   id="svg1"
   xml:space="preserve"
   xmlns="http://www.w3.org/2000/svg"
   xmlns:svg="http://www.w3.org/2000/svg"><defs
     id="defs1" /><path
     id="rect8"
     style="stroke-width:0.866025;stroke-linecap:round;stroke-linejoin:round;fill:#ffffff;fill-opacity:1"
     d="M 4 3.5000001 A 1 0.75000002 0 0 0 3 4.2500001 L 3 9.5000003 L 3 11 A 1.409481 1.0571108 0 0 0 3.9433594 11.997559 L 7.0566406 12.814942 A 0.70948101 0.53211077 0 0 0 8 12.3125 L 8 5.7500002 A 1.3874259 1.0405695 0 0 0 7.0507812 4.7626955 L 5 4.2500001 L 10 4.2500001 L 10 6.8750002 L 11 6.8750002 L 11 4.2500001 A 1 0.75000002 0 0 0 10 3.5000001 L 4 3.5000001 z M 11.755859 5.9624025 A 0.21995086 0.16496315 0 0 0 11.5 6.1250002 L 11.5 7.2500002 L 8.5 7.2500002 L 8.5 8.3750002 L 11.5 8.3750002 L 11.5 9.5000003 A 0.21995086 0.16496315 0 0 0 11.869141 9.6215823 L 14.316406 7.9384768 A 0.22916667 0.171875 0 0 0 14.316406 7.6865237 L 11.869141 6.0034181 A 0.21995086 0.16496315 0 0 0 11.755859 5.9624025 z M 6.8515625 8.1376955 C 6.898532 8.1385864 6.9482233 8.1484413 7 8.1655276 C 7.2761424 8.2566546 7.5 8.5544243 7.5 8.8305667 L 7.5 9.3300784 C 7.5 9.6062208 7.2761424 9.7566546 7 9.6655276 C 6.7238576 9.5744006 6.5 9.2766309 6.5 9.0004885 L 6.5 8.499512 C 6.5 8.2751463 6.6480282 8.133835 6.8515625 8.1376955 z M 10 8.7500002 L 10 11 L 8.5 11 L 8.5 11.75 L 10 11.75 A 1 0.75000002 0 0 0 11 11 L 11 8.7500002 L 10 8.7500002 z "
     transform="matrix(1,0,0,1.3333333,0,-2.6666667)" /></svg>
