<?xml version="1.0" encoding="UTF-8"?>
<svg xmlns="http://www.w3.org/2000/svg" xmlns:xlink="http://www.w3.org/1999/xlink" width="128" height="128" viewBox="0 0 128 128" version="1.1">
<g id="surface1">
<path style=" stroke:none;fill-rule:nonzero;fill:rgb(100%,100%,100%);fill-opacity:1;" d="M 32 16 C 27.582031 16 24 19.582031 24 24 L 24 96 C 24 100.789062 27.027344 105.054688 31.546875 106.640625 L 56.453125 115.359375 C 58.1875 115.964844 60.109375 115.691406 61.609375 114.628906 C 63.109375 113.5625 64 111.839844 64 110 L 64 40 C 64 35.222656 60.941406 30.976562 56.40625 29.46875 L 40 24 L 80 24 L 80 52 L 88 52 L 88 24 C 88 19.582031 84.417969 16 80 16 Z M 94.046875 42.265625 C 93.539062 42.179688 93.015625 42.324219 92.621094 42.660156 C 92.226562 42.992188 92 43.484375 92 44 L 92 56 L 68 56 L 68 68 L 92 68 L 92 80 C 92 80.699219 92.410156 81.332031 93.050781 81.613281 C 93.691406 81.894531 94.4375 81.769531 94.953125 81.296875 L 114.53125 63.34375 C 114.90625 62.996094 115.117188 62.511719 115.117188 62 C 115.117188 61.488281 114.90625 61.003906 114.53125 60.65625 L 94.953125 42.703125 C 94.699219 42.472656 94.386719 42.320312 94.046875 42.265625 Z M 54.8125 65.46875 C 55.1875 65.476562 55.585938 65.582031 56 65.765625 C 58.210938 66.738281 60 69.914062 60 72.859375 L 60 78.1875 C 60 81.132812 58.210938 82.738281 56 81.765625 C 53.789062 80.792969 52 77.617188 52 74.671875 L 52 69.328125 C 52 66.933594 53.183594 65.425781 54.8125 65.46875 Z M 80 72 L 80 96 L 68 96 L 68 104 L 80 104 C 84.417969 104 88 100.417969 88 96 L 88 72 Z M 80 72 "/>
</g>
</svg>
