<?xml version="1.0" encoding="UTF-8" standalone="no"?>
<!-- Created with Inkscape (http://www.inkscape.org/) -->

<svg
   width="16"
   height="16"
   viewBox="0 0 16 16"
   version="1.1"
   id="svg1"
   xml:space="preserve"
   xmlns="http://www.w3.org/2000/svg"
   xmlns:svg="http://www.w3.org/2000/svg"><defs
     id="defs1" /><path
     id="rect8"
     style="fill:#ffffff;fill-opacity:1;stroke-width:0.999999;stroke-linecap:round;stroke-linejoin:round"
     d="M 4,2 A 1,1 0 0 0 3,3 v 7 2 a 1.409481,1.409481 0 0 0 0.9433594,1.330078 l 3.1132812,1.089844 A 0.70948101,0.70948101 0 0 0 8,13.75 V 5 A 1.3874259,1.387426 0 0 0 7.0507812,3.6835938 L 5,3 h 5 v 3.5 h 1 V 3 A 1,1 0 0 0 10,2 Z m 7.755859,3.2832031 A 0.21995086,0.21995086 0 0 0 11.5,5.5 V 7 h -3 v 1.5 h 3 V 10 a 0.21995086,0.21995086 0 0 0 0.369141,0.162109 l 2.447265,-2.2441402 a 0.22916667,0.22916666 0 0 0 0,-0.3359375 L 11.869141,5.3378906 A 0.21995086,0.21995086 0 0 0 11.755859,5.2832031 Z M 6.8515625,8.1835937 C 6.898532,8.1847816 6.9482233,8.1979214 7,8.2207032 7.2761424,8.3422058 7.5,8.7392321 7.5,9.1074219 V 9.7734375 C 7.5,10.141627 7.2761424,10.342206 7,10.220703 6.7238576,10.0992 6.5,9.7021742 6.5,9.3339843 V 8.6660157 C 6.5,8.3668614 6.6480282,8.1784464 6.8515625,8.1835937 Z M 10,8.9999999 V 12 H 8.5 v 1 H 10 a 1,1 0 0 0 1,-1 V 8.9999999 Z" /></svg>
