<?xml version="1.0" encoding="UTF-8" standalone="no"?>
<!-- Created with Inkscape (http://www.inkscape.org/) -->

<svg
   width="16"
   height="16"
   viewBox="0 0 16 16"
   version="1.1"
   id="svg1"
   xmlns="http://www.w3.org/2000/svg"
   xmlns:svg="http://www.w3.org/2000/svg">
  <defs
     id="defs1" />
  <path
     id="path4"
     style="baseline-shift:baseline;display:inline;overflow:visible;vector-effect:none;fill:#ffffff;stroke-linecap:round;paint-order:stroke fill markers;enable-background:accumulate;stop-color:#000000;stop-opacity:1"
     d="m 13,2.5 c -0.265201,4.01e-5 -0.519526,0.1054232 -0.707031,0.2929688 L 6.3378906,8.7480469 C 6.9599908,9.0492334 7.4385178,9.6007477 7.6425781,10.271484 L 13.707031,4.2070312 c 0.390424,-0.3905067 0.390424,-1.0235555 0,-1.4140624 C 13.519526,2.605423 13.265201,2.5000401 13,2.5 Z M 5.25,9 c -1.8607535,0 -2.1822261,2.052201 -3.3691406,3.044922 -0.4199408,0.351233 -0.4465792,0.567653 0.09375,0.68164 C 3.273194,13.000514 3.8862917,13 4.5,13 c 1.75,0 2.75,-1 2.75,-2 0,-1.1045695 -0.8954305,-2 -2,-2 z" />
</svg>
