<?xml version="1.0" encoding="UTF-8" standalone="no"?>
<!-- Created with Inkscape (http://www.inkscape.org/) -->

<svg
   width="16"
   height="16"
   viewBox="0 0 16 16"
   version="1.1"
   id="svg1"
   xmlns="http://www.w3.org/2000/svg"
   xmlns:svg="http://www.w3.org/2000/svg">
  <defs
     id="defs1" />
  <g
     id="layer1">
    <path
       id="path2"
       style="display:none;fill:#ffffff;stroke-width:3;stroke-linecap:round;paint-order:stroke fill markers"
       d="m 7.1883035,11.494873 c -0.1799423,0.706925 -0.736445,1.263446 -1.4433604,1.443413 -0.2669514,0.06796 -0.7190262,0.06006 -0.9943383,0.03946 C 3.8349431,12.909209 2.4650666,12.698923 1.7403529,12.58148 1.4693605,12.537564 1.447285,12.390847 1.6621404,12.217841 2.9190689,11.205735 3.3378909,9.3986882 4.7548522,9.0566943 c 0.2675663,-0.064579 0.7231055,-0.062939 0.990021,0.005 0.7069253,0.1799423 1.2634454,0.7364452 1.4434125,1.4433607 0.067961,0.266951 0.067959,0.722901 1.78e-5,0.989816 z" />
    <path
       style="display:inline;fill:#ffffff;stroke-linecap:round;paint-order:stroke fill markers"
       d="M 7.6421986,10.271864 13.707031,4.2070312 c 0.390424,-0.3905069 0.390424,-1.0235555 0,-1.4140624 C 13.519526,2.6054232 13.265201,2.5000401 13,2.5 12.734799,2.5000401 12.480474,2.6054232 12.292969,2.7929688 L 6.3374584,8.7484791 c 0.6221002,0.3011865 1.1006799,0.8526478 1.3047402,1.5233849 z"
       id="path3" />
    <path
       id="path1"
       style="display:inline;fill:#ffffff;paint-order:stroke fill markers"
       d="m 7.25,11 c 0,1 -1,2 -2.75,2 C 3.8862917,13 3.2725835,13 1.9739989,12.726049 1.4336697,12.612061 1.4604837,12.395749 1.8804245,12.044516 3.067339,11.051795 3.3892465,9 5.25,9 c 1.1045695,0 2,0.8954305 2,2 z" />
  </g>
</svg>
