<?xml version="1.0" encoding="UTF-8"?>
<svg xmlns="http://www.w3.org/2000/svg" xmlns:xlink="http://www.w3.org/1999/xlink" width="128" height="128" viewBox="0 0 128 128" version="1.1">
<g id="surface1">
<path style=" stroke:none;fill-rule:nonzero;fill:rgb(100%,100%,100%);fill-opacity:1;" d="M 104 20 C 101.878906 20 99.84375 20.84375 98.34375 22.34375 L 50.703125 69.984375 C 55.679688 72.394531 59.507812 76.804688 61.140625 82.171875 L 109.65625 33.65625 C 112.78125 30.53125 112.78125 25.46875 109.65625 22.34375 C 108.15625 20.84375 106.121094 20 104 20 Z M 42 72 C 27.113281 72 24.542969 88.417969 15.046875 96.359375 C 11.6875 99.167969 11.472656 100.902344 15.796875 101.8125 C 26.1875 104.003906 31.089844 104 36 104 C 50 104 58 96 58 88 C 58 79.164062 50.835938 72 42 72 Z M 42 72 "/>
</g>
</svg>
