<?xml version="1.0" encoding="UTF-8" standalone="no"?>
<!-- Created with Inkscape (http://www.inkscape.org/) -->

<svg
   width="16"
   height="16"
   viewBox="0 0 16 16"
   version="1.1"
   id="svg1"
   xml:space="preserve"
   xmlns="http://www.w3.org/2000/svg"
   xmlns:svg="http://www.w3.org/2000/svg"><defs
     id="defs1" /><g
     id="layer1"><path
       id="path48"
       style="fill:#ffffff;stroke-linecap:round"
       d="M 2.7715977 2.0606602 C 2.3753203 2.0807475 2.0606602 2.4093908 2.0606602 2.8106602 C 2.0606602 3.2248738 2.3964466 3.5606602 2.8106602 3.5606602 C 3.2248738 3.5606602 3.5606602 3.2248738 3.5606602 2.8106602 C 3.5606602 2.3964466 3.2248738 2.0606602 2.8106602 2.0606602 C 2.797716 2.0606602 2.7843808 2.0600122 2.7715977 2.0606602 z M 5.0606602 2.3106602 C 4.7836602 2.3106602 4.5606602 2.5336602 4.5606602 2.8106602 C 4.5606602 3.0876602 4.7836602 3.3106602 5.0606602 3.3106602 L 12.06066 3.3106602 C 12.33766 3.3106602 12.56066 3.0876602 12.56066 2.8106602 C 12.56066 2.5336602 12.33766 2.3106602 12.06066 2.3106602 L 5.0606602 2.3106602 z M 13.414176 4.0860508 A 1.4168131 1.4168131 0 0 0 12.439566 4.5606602 L 10.750113 6.2501133 L 9.8536289 5.353629 A 0.5 0.5 0 0 0 9.4219883 5.213004 A 0.5 0.5 0 0 0 9.1465977 5.353629 L 8.3536289 6.1465977 A 0.5 0.5 0 0 0 8.3536289 6.853629 L 8.8965977 7.3965977 L 4.7071446 11.586051 C 3.9302841 12.362911 3.9302841 13.637315 4.7071446 14.414176 L 4.7188633 14.425895 L 4.728629 14.43566 C 5.5167085 15.133598 6.7377225 15.059678 7.4356602 14.271598 L 11.603629 10.103629 L 12.146598 10.646598 A 0.5 0.5 0 0 0 12.853629 10.646598 L 13.646598 9.8536289 A 0.5 0.5 0 0 0 13.646598 9.1465977 L 12.750113 8.2501133 L 14.439566 6.5606602 A 1.5 1.5 0 0 0 14.439566 4.4395665 A 1.4168131 1.4168131 0 0 0 13.414176 4.0860508 z M 2.7715977 4.5606602 C 2.3753203 4.5807475 2.0606602 4.9093908 2.0606602 5.3106602 C 2.0606602 5.7248738 2.3964466 6.0606602 2.8106602 6.0606602 C 3.2248738 6.0606602 3.5606602 5.7248738 3.5606602 5.3106602 C 3.5606602 4.8964466 3.2248738 4.5606602 2.8106602 4.5606602 C 2.7977162 4.5606602 2.7843812 4.5600122 2.7715977 4.5606602 z M 5.0606602 4.8106602 C 4.7836602 4.8106602 4.5606602 5.0336602 4.5606602 5.3106602 C 4.5606602 5.5876602 4.7836602 5.8106602 5.0606602 5.8106602 L 7.8497227 5.8106602 C 7.8742487 5.7803422 7.9015798 5.7509966 7.9298008 5.7227696 L 8.7227696 4.9298008 C 8.7670366 4.8855438 8.8141902 4.8458298 8.8633946 4.8106602 L 5.0606602 4.8106602 z M 10.136832 4.8106602 C 10.186042 4.8458302 10.233182 4.8855442 10.277457 4.9298008 L 10.750113 5.4024571 L 11.34191 4.8106602 L 10.136832 4.8106602 z M 2.7715977 7.0606602 C 2.3753203 7.0807475 2.0606602 7.4093908 2.0606602 7.8106602 C 2.0606602 8.2248738 2.3964466 8.5606602 2.8106602 8.5606602 C 3.2248738 8.5606602 3.5606602 8.2248738 3.5606602 7.8106602 C 3.5606602 7.3964466 3.2248738 7.0606602 2.8106602 7.0606602 C 2.797716 7.0606602 2.7843808 7.0600122 2.7715977 7.0606602 z M 5.0606602 7.3106602 C 4.7836602 7.3106602 4.5606602 7.5336602 4.5606602 7.8106602 C 4.5606602 8.0876602 4.7836602 8.3106602 5.0606602 8.3106602 L 7.134879 8.3106602 L 8.0489414 7.3965977 L 7.963004 7.3106602 L 5.0606602 7.3106602 z M 9.6036289 8.1036289 L 10.896598 9.3965977 L 9.2325352 11.06066 L 6.6465977 11.06066 L 9.6036289 8.1036289 z "
       transform="translate(-0.0606602,-0.0606602)" /></g><style
     id="s0">.success { fill: #009909; }
.warning { fill: #FF1990; }
.error { fill: #00AAFF; }
</style><style
     id="s2"> 
     @import '../../highlights.css'; 
  </style></svg>
