<?xml version="1.0" encoding="UTF-8" standalone="no"?>
<!-- Created with Inkscape (http://www.inkscape.org/) -->

<svg
   width="16"
   height="16"
   viewBox="0 0 16 16"
   version="1.1"
   id="svg1"
   xml:space="preserve"
   xmlns="http://www.w3.org/2000/svg"
   xmlns:svg="http://www.w3.org/2000/svg"><defs
     id="defs1" /><path
     id="path48"
     style="fill:#ffffff;stroke-linecap:round"
     d="M 2.7109375,2 C 2.3146601,2.020087 2,2.3487306 2,2.75 2,3.1642136 2.3357864,3.5 2.75,3.5 3.1642136,3.5 3.5,3.1642136 3.5,2.75 3.5,2.3357864 3.1642136,2 2.75,2 2.737056,2 2.723721,1.999352 2.7109375,2 Z M 5,2.25 c -0.277,0 -0.5,0.223 -0.5,0.5 0,0.277 0.223,0.5 0.5,0.5 h 7 c 0.277,0 0.5,-0.223 0.5,-0.5 0,-0.277 -0.223,-0.5 -0.5,-0.5 z m 8.353516,1.7753906 A 1.4168131,1.4168131 0 0 0 12.378906,4.5 L 10.689453,6.1894531 9.7929687,5.2929688 A 0.5,0.5 0 0 0 9.3613281,5.1523438 0.5,0.5 0 0 0 9.0859375,5.2929688 L 8.2929687,6.0859375 a 0.5,0.5 0 0 0 0,0.7070313 L 8.8359375,7.3359375 4.6464844,11.525391 c -0.7768605,0.77686 -0.7768605,2.051264 0,2.828125 l 0.011719,0.01172 0.00977,0.0098 c 0.7880795,0.697938 2.0090935,0.624018 2.7070312,-0.164062 l 4.1679684,-4.167969 0.542969,0.542969 a 0.5,0.5 0 0 0 0.707031,0 l 0.792969,-0.7929693 a 0.5,0.5 0 0 0 0,-0.7070312 L 12.689453,8.1894531 14.378906,6.5 a 1.5,1.5 0 0 0 0,-2.1210937 1.4168131,1.4168131 0 0 0 -1.02539,-0.3535157 z M 2.7109375,4.5 C 2.3146601,4.520087 2,4.8487306 2,5.25 2,5.6642136 2.3357864,6 2.75,6 3.1642136,6 3.5,5.6642136 3.5,5.25 3.5,4.8357864 3.1642136,4.5 2.75,4.5 2.737056,4.5 2.723721,4.499352 2.7109375,4.5 Z M 5,4.75 c -0.277,0 -0.5,0.223 -0.5,0.5 0,0.277 0.223,0.5 0.5,0.5 H 7.7890625 C 7.8135885,5.719682 7.8409195,5.690336 7.8691405,5.662109 L 8.6621094,4.8691406 C 8.7063764,4.8248836 8.7535304,4.7851696 8.8027344,4.75 Z m 5.076172,0 c 0.04921,0.03517 0.09635,0.074884 0.140625,0.1191406 L 10.689453,5.3417969 11.28125,4.75 Z M 2.7109375,7 C 2.3146601,7.020087 2,7.3487306 2,7.75 2,8.1642136 2.3357864,8.5 2.75,8.5 3.1642136,8.5 3.5,8.1642136 3.5,7.75 3.5,7.3357864 3.1642136,7 2.75,7 2.737056,7 2.723721,6.999352 2.7109375,7 Z M 5,7.25 c -0.277,0 -0.5,0.223 -0.5,0.5 0,0.277 0.223,0.5 0.5,0.5 H 7.0742188 L 7.9882812,7.3359375 7.9023438,7.25 Z M 9.5429687,8.0429687 10.835938,9.3359375 9.171875,11 H 6.5859375 Z" /><style
     id="s0">.success { fill: #009909; }
.warning { fill: #FF1990; }
.error { fill: #00AAFF; }
</style><style
     id="s2"> 
     @import '../../highlights.css'; 
  </style></svg>
