<?xml version="1.0" encoding="UTF-8"?>
<svg xmlns="http://www.w3.org/2000/svg" xmlns:xlink="http://www.w3.org/1999/xlink" width="128" height="128" viewBox="0 0 128 128" version="1.1">
<g id="surface1">
<path style=" stroke:none;fill-rule:nonzero;fill:rgb(100%,100%,100%);fill-opacity:1;" d="M 21.6875 16 C 18.515625 16.160156 16 18.789062 16 22 C 16 25.3125 18.6875 28 22 28 C 25.3125 28 28 25.3125 28 22 C 28 18.6875 25.3125 16 22 16 C 21.894531 16 21.789062 15.996094 21.6875 16 Z M 40 18 C 37.785156 18 36 19.785156 36 22 C 36 24.214844 37.785156 26 40 26 L 96 26 C 98.214844 26 100 24.214844 100 22 C 100 19.785156 98.214844 18 96 18 Z M 106.828125 32.203125 C 103.828125 32.386719 101.023438 33.75 99.03125 36 L 85.515625 49.515625 L 78.34375 42.34375 C 77.4375 41.4375 76.15625 41.019531 74.890625 41.21875 C 74.054688 41.351562 73.285156 41.746094 72.6875 42.34375 L 66.34375 48.6875 C 64.78125 50.25 64.78125 52.78125 66.34375 54.34375 L 70.6875 58.6875 L 37.171875 92.203125 C 30.957031 98.417969 30.957031 108.613281 37.171875 114.828125 L 37.34375 115 C 43.648438 120.582031 53.417969 119.992188 59 113.6875 L 92.34375 80.34375 L 96.6875 84.6875 C 98.25 86.25 100.78125 86.25 102.34375 84.6875 L 108.6875 78.34375 C 110.25 76.78125 110.25 74.25 108.6875 72.6875 L 101.515625 65.515625 L 115.03125 52 C 119.714844 47.3125 119.714844 39.71875 115.03125 35.03125 C 112.78125 33.039062 109.828125 32.019531 106.828125 32.203125 Z M 21.6875 36 C 18.515625 36.160156 16 38.789062 16 42 C 16 45.3125 18.6875 48 22 48 C 25.3125 48 28 45.3125 28 42 C 28 38.6875 25.3125 36 22 36 C 21.894531 36 21.789062 35.996094 21.6875 36 Z M 40 38 C 37.785156 38 36 39.785156 36 42 C 36 44.214844 37.785156 46 40 46 L 62.3125 46 C 62.507812 45.757812 62.726562 45.523438 62.953125 45.296875 L 69.296875 38.953125 C 69.652344 38.597656 70.027344 38.28125 70.421875 38 Z M 80.609375 38 C 81.003906 38.28125 81.378906 38.597656 81.734375 38.953125 L 85.515625 42.734375 L 90.25 38 Z M 21.6875 56 C 18.515625 56.160156 16 58.789062 16 62 C 16 65.3125 18.6875 68 22 68 C 25.3125 68 28 65.3125 28 62 C 28 58.6875 25.3125 56 22 56 C 21.894531 56 21.789062 55.996094 21.6875 56 Z M 40 58 C 37.785156 58 36 59.785156 36 62 C 36 64.214844 37.785156 66 40 66 L 56.59375 66 L 63.90625 58.6875 L 63.21875 58 Z M 76.34375 64.34375 L 86.6875 74.6875 L 73.375 88 L 52.6875 88 Z M 76.34375 64.34375 "/>
</g>
</svg>
