<?xml version="1.0" encoding="UTF-8" standalone="no"?>
<!-- Created with Inkscape (http://www.inkscape.org/) -->

<svg
   width="16"
   height="16"
   viewBox="0 0 16 16"
   version="1.1"
   id="svg1"
   xml:space="preserve"
   xmlns="http://www.w3.org/2000/svg"
   xmlns:svg="http://www.w3.org/2000/svg"><defs
     id="defs1" /><path
     id="path2"
     style="fill:#ffffff"
     d="M 3 2 C 2.4477153 2 2 2.4477153 2 3 L 2 11 C 2 11.552285 2.4477153 12 3 12 L 7.8789062 12 L 8.8789062 11 L 6.7929688 8.9140625 C 6.4036599 8.5247536 6.4036599 7.8893089 6.7929688 7.5 L 7.5 6.7929688 C 7.6945855 6.5983832 7.9498154 6.5 8.2070312 6.5 C 8.4642471 6.5 8.719477 6.5983832 8.9140625 6.7929688 L 11 8.8789062 L 12 7.8789062 L 12 3 C 12 2.4477153 11.552285 2 11 2 L 3 2 z M 8.2070312 7 A 0.49999999 0.49999999 0 0 0 7.8535156 7.1464844 L 7.1464844 7.8535156 A 0.49999999 0.49999999 0 0 0 7.1464844 8.5605469 L 9.5859375 11 L 7.1464844 13.439453 A 0.49999991 0.49999991 0 0 0 7.1464844 14.146484 L 7.8535156 14.853516 A 0.50000017 0.50000017 0 0 0 8.5605469 14.853516 L 11 12.414062 L 13.439453 14.853516 A 0.50000009 0.50000009 0 0 0 14.146484 14.853516 L 14.853516 14.146484 A 0.50000009 0.50000009 0 0 0 14.853516 13.439453 L 12.414062 11 L 14.853516 8.5605469 A 0.50000017 0.50000017 0 0 0 14.853516 7.8535156 L 14.146484 7.1464844 A 0.49999991 0.49999991 0 0 0 13.439453 7.1464844 L 11 9.5859375 L 8.5605469 7.1464844 A 0.49999999 0.49999999 0 0 0 8.2070312 7 z " /></svg>
