<?xml version="1.0" encoding="UTF-8"?>
<svg xmlns="http://www.w3.org/2000/svg" xmlns:xlink="http://www.w3.org/1999/xlink" width="128" height="128" viewBox="0 0 128 128" version="1.1">
<g id="surface1">
<path style=" stroke:none;fill-rule:nonzero;fill:rgb(100%,100%,100%);fill-opacity:1;" d="M 24 16 C 19.582031 16 16 19.582031 16 24 L 16 88 C 16 92.417969 19.582031 96 24 96 L 63.03125 96 L 71.03125 88 L 54.34375 71.3125 C 51.230469 68.199219 51.230469 63.113281 54.34375 60 L 60 54.34375 C 61.558594 52.785156 63.597656 52 65.65625 52 C 67.714844 52 69.753906 52.785156 71.3125 54.34375 L 88 71.03125 L 96 63.03125 L 96 24 C 96 19.582031 92.417969 16 88 16 Z M 65.65625 56 C 64.59375 56 63.578125 56.421875 62.828125 57.171875 L 57.171875 62.828125 C 55.609375 64.390625 55.609375 66.921875 57.171875 68.484375 L 76.6875 88 L 57.171875 107.515625 C 55.609375 109.078125 55.609375 111.609375 57.171875 113.171875 L 62.828125 118.828125 C 64.390625 120.390625 66.921875 120.390625 68.484375 118.828125 L 88 99.3125 L 107.515625 118.828125 C 109.078125 120.390625 111.609375 120.390625 113.171875 118.828125 L 118.828125 113.171875 C 120.390625 111.609375 120.390625 109.078125 118.828125 107.515625 L 99.3125 88 L 118.828125 68.484375 C 120.390625 66.921875 120.390625 64.390625 118.828125 62.828125 L 113.171875 57.171875 C 111.609375 55.609375 109.078125 55.609375 107.515625 57.171875 L 88 76.6875 L 68.484375 57.171875 C 67.734375 56.421875 66.71875 56 65.65625 56 Z M 65.65625 56 "/>
</g>
</svg>
