<svg version="1.1" xmlns="http://www.w3.org/2000/svg" xmlns:xlink="http://www.w3.org/1999/xlink" width="463.21171" height="74.57417" viewBox="0,0,463.21171,74.57417"><defs><linearGradient x1="240.05421" y1="-6.84315" x2="240.05421" y2="81.54298" gradientUnits="userSpaceOnUse" id="color-1"><stop offset="0" stop-color="#4f4f4f"/><stop offset="1" stop-color="#282828"/></linearGradient></defs><g transform="translate(-8.44836,-6.96879)"><g data-paper-data="{&quot;isPaintingLayer&quot;:true}" fill-rule="nonzero" stroke="none" stroke-linecap="butt" stroke-linejoin="miter" stroke-miterlimit="10" stroke-dasharray="" stroke-dashoffset="0" style="mix-blend-mode: normal"><path d="M8.44836,11.57647c0,-2.89177 1.97207,-4.60768 4.9768,-4.60768c26.82849,0 400.49252,0 452.29318,0c3.86832,0 5.94171,2.36299 5.94171,6.21297c0,14.30397 0,49.13402 0,59.56494c0,4.40106 -3.33347,8.79626 -9.43207,8.79626c-62.72449,0 -417.95207,0 -447.36239,0c-3.82481,0 -6.41723,-3.96267 -6.41723,-8.03034c0,0 0,-48.65424 0,-61.93615z" fill="url(#color-1)" stroke-width="NaN"/><path d="M348.76718,11.57647c0,-2.89177 1.97207,-4.60768 4.9768,-4.60768c26.82849,0 60.17373,0 111.97439,0c3.86832,0 5.94171,2.36299 5.94171,6.21297c0,14.30397 0,49.13402 0,59.56494c0,4.40106 -3.33347,8.79626 -9.43207,8.79626c-62.72449,0 -77.63328,0 -107.0436,0c-3.82481,0 -6.41723,-3.96267 -6.41723,-8.03034c0,0 0,-48.65424 0,-61.93615z" fill="#4f4f4f" stroke-width="NaN"/></g></g></svg>