<svg version="1.1" xmlns="http://www.w3.org/2000/svg" xmlns:xlink="http://www.w3.org/1999/xlink" width="463.21169" height="22.40786" viewBox="0,0,463.21169,22.40786"><g transform="translate(-8.44836,-80.17607)"><g data-paper-data="{&quot;isPaintingLayer&quot;:true}" fill-rule="nonzero" stroke="none" stroke-linecap="butt" stroke-linejoin="miter" stroke-miterlimit="10" stroke-dasharray="" stroke-dashoffset="0" style="mix-blend-mode: normal"><path d="M8.44836,98.04931c0,-2.83814 0,-13.06822 0,-16.63565c0,-0.77671 1.97207,-1.23759 4.9768,-1.23759c26.82849,0 400.49252,0 452.29318,0c3.86832,0 5.94171,0.63468 5.94171,1.66876c0,3.84195 0,13.19708 0,15.99876c0,1.1821 -3.33347,2.36262 -9.43207,2.36262c-62.72449,0 -417.95207,0 -447.36239,0c-3.82481,0 -6.41723,-1.06435 -6.41723,-2.1569z" fill="#212121" stroke-width="NaN"/><path d="M137.3521,99.99845v-19.7302h5.47812v19.7302z" fill="#282828" stroke-width="0"/><path d="M337.85904,99.99845v-19.7302h5.47812v19.7302z" fill="#282828" stroke-width="0"/><text transform="translate(177.04041,96.2637) scale(0.36553,0.36553)" font-size="40" xml:space="preserve" fill="#ffffff" fill-rule="nonzero" stroke="none" stroke-width="1" stroke-linecap="butt" stroke-linejoin="miter" stroke-miterlimit="10" stroke-dasharray="" stroke-dashoffset="0" font-family="Handwriting" font-weight="normal" text-anchor="start" style="mix-blend-mode: normal"><tspan x="0" dy="0">0Greatness Webring</tspan></text><text transform="translate(54.17939,96.2637) scale(0.36554,0.36554)" font-size="40" xml:space="preserve" fill="#ffffff" fill-rule="nonzero" stroke="none" stroke-width="1" stroke-linecap="butt" stroke-linejoin="miter" stroke-miterlimit="10" stroke-dasharray="" stroke-dashoffset="0" font-family="Handwriting" font-weight="normal" text-anchor="start" style="mix-blend-mode: normal"><tspan x="0" dy="0">Prev</tspan></text><text transform="translate(391.03168,96.2637) scale(0.36554,0.36554)" font-size="40" xml:space="preserve" fill="#ffffff" fill-rule="nonzero" stroke="none" stroke-width="1" stroke-linecap="butt" stroke-linejoin="miter" stroke-miterlimit="10" stroke-dasharray="" stroke-dashoffset="0" font-family="Handwriting" font-weight="normal" text-anchor="start" style="mix-blend-mode: normal"><tspan x="0" dy="0">Next</tspan></text></g></g></svg>