<svg version="1.1" xmlns="http://www.w3.org/2000/svg" xmlns:xlink="http://www.w3.org/1999/xlink" width="462.63842" height="21.17866" viewBox="0,0,462.63842,21.17866"><g transform="translate(-9.01395,-229.76301)"><g data-paper-data="{&quot;isPaintingLayer&quot;:true}" fill-rule="nonzero" stroke="none" stroke-linecap="butt" stroke-linejoin="miter" stroke-miterlimit="10" stroke-dasharray="" stroke-dashoffset="0" style="mix-blend-mode: normal"><path d="M9.01395,247.63625c0,-2.83814 0,-13.06822 0,-16.63565c0,-0.77671 1.97207,-1.23759 4.9768,-1.23759c26.82849,0 156.7124,0 208.51306,0c3.86832,0 5.94171,0.63468 5.94171,1.66876c0,3.84195 0,13.19708 0,15.99876c0,1.1821 0.3536,2.36262 -5.745,2.36262c-62.72449,0 -177.85901,0 -207.26933,0c-3.82481,0 -6.41723,-1.06435 -6.41723,-2.1569z" fill="#212121" stroke-width="NaN"/><path d="M15.56498,249.58538v-19.7302h5.47812v19.7302z" fill="#282828" stroke-width="0"/><path d="M216.07192,249.58538v-19.7302h5.47812v19.7302z" fill="#282828" stroke-width="0"/><text transform="translate(76.14667,244.62161) scale(0.36553,0.36553)" font-size="40" xml:space="preserve" fill="#ffffff" fill-rule="nonzero" stroke="none" stroke-width="1" stroke-linecap="butt" stroke-linejoin="miter" stroke-miterlimit="10" stroke-dasharray="" stroke-dashoffset="0" font-family="Handwriting" font-weight="normal" text-anchor="start" style="mix-blend-mode: normal"><tspan x="0" dy="0">Privacy Policy</tspan></text><path d="M252.21698,247.63626c0,-2.83814 0,-13.06822 0,-16.63565c0,-0.77671 1.97207,-1.23759 4.9768,-1.23759c26.82849,0 156.7124,0 208.51306,0c3.86832,0 5.94171,0.63468 5.94171,1.66876c0,3.84195 0,13.19708 0,15.99876c0,1.1821 0.3536,2.36262 -5.745,2.36262c-62.72449,0 -177.85901,0 -207.26933,0c-3.82481,0 -6.41723,-1.06435 -6.41723,-2.1569z" fill="#212121" stroke-width="NaN"/><path d="M258.76801,249.58538v-19.7302h5.47812v19.7302z" fill="#282828" stroke-width="0"/><path d="M459.27495,249.58538v-19.7302h5.47812v19.7302z" fill="#282828" stroke-width="0"/><text transform="translate(341.67107,244.62162) scale(0.36553,0.36553)" font-size="40" xml:space="preserve" fill="#ffffff" fill-rule="nonzero" stroke="none" stroke-width="1" stroke-linecap="butt" stroke-linejoin="miter" stroke-miterlimit="10" stroke-dasharray="" stroke-dashoffset="0" font-family="Handwriting" font-weight="normal" text-anchor="start" style="mix-blend-mode: normal"><tspan x="0" dy="0">GitHub</tspan></text></g></g></svg>